<?xml version="1.0" standalone="no"?>
<!DOCTYPE svg PUBLIC "-//W3C//DTD SVG 20010904//EN"
 "http://www.w3.org/TR/2001/REC-SVG-20010904/DTD/svg10.dtd">
<svg version="1.0" xmlns="http://www.w3.org/2000/svg"
 width="512.000000pt" height="512.000000pt" viewBox="0 0 512.000000 512.000000"
 preserveAspectRatio="xMidYMid meet">

<g transform="translate(0.000000,512.000000) scale(0.100000,-0.100000)"
fill="#000000" stroke="none">
<path d="M2596 1683 c-71 -428 -133 -789 -137 -803 -5 -19 -8 -11 -14 38 l-8
62 -412 0 c-228 0 -420 3 -429 6 -14 6 -16 69 -16 610 l0 604 -41 0 c-31 0
-47 -6 -70 -29 l-29 -29 0 -615 c0 -604 0 -615 20 -640 12 -15 38 -31 58 -37
23 -6 210 -10 488 -10 l450 0 22 -25 c12 -13 33 -27 47 -31 31 -8 82 12 96 37
9 18 31 19 457 19 275 0 461 4 484 10 20 6 46 22 58 37 20 25 20 36 20 640 l0
615 -29 29 c-22 21 -39 29 -65 29 l-36 0 0 -591 c0 -388 -4 -597 -10 -610 -10
-18 -26 -19 -425 -19 l-414 0 5 28 c2 15 14 81 25 147 11 66 26 158 35 205 8
47 19 112 24 145 5 33 16 103 25 155 9 52 20 120 25 150 5 30 18 109 29 175
11 66 32 192 46 280 14 88 27 168 29 178 4 15 -5 17 -88 17 l-91 0 -129 -777z"/>
</g>
</svg>
